<svg width="20" height="20" viewBox="0 0 20 20" fill="none" xmlns="http://www.w3.org/2000/svg">
<path fill-rule="evenodd" clip-rule="evenodd" d="M9.40995 2.75669C9.08162 3.18502 8.71162 3.84669 8.17328 4.81169L7.90078 5.30085L7.85162 5.38919C7.60162 5.83919 7.38912 6.22085 7.04828 6.47919C6.70412 6.74085 6.28412 6.83502 5.79578 6.94502L5.70078 6.96669L5.17078 7.08669C4.12495 7.32335 3.41245 7.48585 2.92578 7.67835C2.44995 7.86502 2.34995 8.01919 2.31162 8.14169C2.27078 8.27169 2.26995 8.47085 2.55328 8.92252C2.84245 9.38085 3.32995 9.95252 4.04162 10.7859L4.40328 11.2084L4.46578 11.2809C4.80162 11.6725 5.08162 11.9992 5.20995 12.4125C5.33745 12.8234 5.29495 13.2542 5.24328 13.7775L5.23495 13.875L5.17995 14.4392C5.07162 15.5492 4.99995 16.3142 5.02412 16.8642C5.04912 17.4142 5.16495 17.5659 5.25745 17.6359C5.33912 17.6984 5.49078 17.7667 5.98495 17.625C6.48745 17.4817 7.15578 17.1759 8.13495 16.725L8.63162 16.4967L8.72245 16.455C9.17662 16.2442 9.56995 16.0625 9.99995 16.0625C10.4299 16.0625 10.8233 16.2442 11.2774 16.4542C11.3069 16.4686 11.3374 16.4825 11.3691 16.4959L11.8649 16.725C12.8441 17.1759 13.5124 17.4817 14.0149 17.625C14.5091 17.7667 14.6608 17.6984 14.7424 17.6359C14.8349 17.5659 14.9508 17.4134 14.9758 16.8642C15.0008 16.3142 14.9274 15.5492 14.8199 14.4392L14.7649 13.875L14.7566 13.7775C14.7049 13.2542 14.6624 12.8234 14.7899 12.4125C14.9183 11.9992 15.1983 11.6725 15.5341 11.2809L15.5966 11.2084L15.9583 10.7859C16.6699 9.95252 17.1574 9.38085 17.4458 8.92252C17.7299 8.47085 17.7291 8.27252 17.6883 8.14169C17.6499 8.01919 17.5499 7.86502 17.0741 7.67835C16.5866 7.48585 15.8749 7.32335 14.8291 7.08669L14.2991 6.96669L14.2041 6.94502C13.7158 6.83502 13.2958 6.74085 12.9516 6.47919C12.6099 6.22085 12.3991 5.84002 12.1483 5.38919L12.0999 5.30085L11.8266 4.81169C11.2883 3.84669 10.9183 3.18502 10.5899 2.75669C10.2616 2.32835 10.0949 2.29169 9.99995 2.29169C9.90495 2.29169 9.73745 2.32835 9.40995 2.75669ZM8.41828 1.99669C8.81412 1.47835 9.30495 1.04169 9.99995 1.04169C10.6949 1.04169 11.1849 1.47835 11.5824 1.99669C11.9724 2.50669 12.3866 3.24919 12.8924 4.15669L13.1916 4.69252C13.5183 5.27919 13.6024 5.40419 13.7074 5.48419C13.8074 5.56002 13.9383 5.60335 14.5741 5.74752L15.1574 5.87919C16.1374 6.10085 16.9449 6.28335 17.5324 6.51502C18.1424 6.75585 18.6766 7.11002 18.8824 7.77085C19.0858 8.42502 18.8574 9.02669 18.5041 9.58752C18.1608 10.1334 17.6124 10.775 16.9424 11.5584L16.5466 12.0209C16.1158 12.5242 16.0258 12.6475 15.9833 12.7834C15.9408 12.9225 15.9441 13.0834 16.0099 13.7542L16.0691 14.3692C16.1708 15.4159 16.2533 16.2692 16.2241 16.9192C16.1949 17.5817 16.0449 18.2167 15.4991 18.6317C14.9424 19.0534 14.2949 19.0067 13.6699 18.8267C13.0641 18.6534 12.3091 18.3059 11.3924 17.8834L10.8458 17.6317C10.2474 17.3567 10.1199 17.3125 9.99995 17.3125C9.87995 17.3125 9.75245 17.3567 9.15412 17.6317L8.60828 17.8834C7.69078 18.3059 6.93578 18.6534 6.32995 18.8267C5.70495 19.0059 5.05745 19.0534 4.50162 18.6317C3.95495 18.2167 3.80495 17.5817 3.77578 16.92C3.74662 16.27 3.82912 15.4159 3.93078 14.37L3.99078 13.7542C4.05578 13.0825 4.05912 12.9225 4.01578 12.7834C3.97412 12.6475 3.88412 12.525 3.45328 12.0209L3.05745 11.5584C2.38828 10.775 1.83995 10.1334 1.49662 9.58835C1.14245 9.02669 0.914116 8.42502 1.11745 7.77085C1.32328 7.11002 1.85745 6.75585 2.46745 6.51502C3.05495 6.28335 3.86245 6.10085 4.84245 5.87919L4.89495 5.86752L5.42495 5.74752C6.06162 5.60335 6.19162 5.56002 6.29245 5.48335C6.39745 5.40419 6.48162 5.27919 6.80911 4.69252L7.10745 4.15669C7.61328 3.24835 8.02745 2.50669 8.41745 1.99669" fill="white"/>
</svg>
